<svg width="29" height="29" viewBox="0 0 29 29" fill="none" xmlns="http://www.w3.org/2000/svg">
<path d="M14.2391 2.37305H7.12007C4.17516 2.37305 3.56055 2.98766 3.56055 5.93257V26.1032H17.7986V5.93257C17.7986 2.98766 17.184 2.37305 14.2391 2.37305Z" stroke="white" stroke-width="1.77976" stroke-linejoin="round"/>
<path d="M21.3564 9.49219H17.7969V26.1033H24.9159V13.0517C24.9159 10.1068 24.3013 9.49219 21.3564 9.49219Z" stroke="white" stroke-width="1.77976" stroke-linejoin="round"/>
<path d="M9.49219 7.11914H11.8652M9.49219 10.6787H11.8652M9.49219 14.2382H11.8652" stroke="white" stroke-width="1.77976" stroke-linecap="round" stroke-linejoin="round"/>
<path d="M13.6454 26.1034V21.3574C13.6454 20.2388 13.6454 19.6794 13.2979 19.3319C12.9504 18.9844 12.3911 18.9844 11.2724 18.9844H10.0859C8.96725 18.9844 8.40794 18.9844 8.06041 19.3319C7.71289 19.6794 7.71289 20.2388 7.71289 21.3574V26.1034" stroke="white" stroke-width="1.77976" stroke-linejoin="round"/>
</svg>
