<svg width="33" height="33" viewBox="0 0 33 33" fill="none" xmlns="http://www.w3.org/2000/svg">
<path d="M8.25 28.875C6.97129 28.875 6.33193 28.875 5.80737 28.7345C4.38387 28.3531 3.27198 27.2411 2.89055 25.8177C2.75 25.2931 2.75 24.6538 2.75 23.375V17.875C2.75 16.5962 2.75 15.9569 2.89055 15.4323C3.27198 14.0089 4.38387 12.897 5.80737 12.5156C6.33193 12.375 6.97129 12.375 8.25 12.375" stroke="#12283F" stroke-width="2.0625" stroke-linecap="round" stroke-linejoin="round"/>
<path d="M24.75 28.875C26.0288 28.875 26.6681 28.875 27.1927 28.7345C28.6161 28.3531 29.7281 27.2411 30.1095 25.8177C30.25 25.2931 30.25 24.6538 30.25 23.375V17.875C30.25 16.5962 30.25 15.9569 30.1095 15.4323C29.7281 14.0089 28.6161 12.897 27.1927 12.5156C26.6681 12.375 26.0288 12.375 24.75 12.375" stroke="#12283F" stroke-width="2.0625" stroke-linecap="round" stroke-linejoin="round"/>
<path d="M24.75 28.875V12.375C24.75 8.48591 24.75 6.54137 23.5418 5.33318C22.3336 4.125 20.389 4.125 16.5 4.125C12.6109 4.125 10.6664 4.125 9.45819 5.33318C8.25 6.54137 8.25 8.48591 8.25 12.375V28.875H24.75Z" stroke="#12283F" stroke-width="2.0625" stroke-linecap="round" stroke-linejoin="round"/>
<path d="M13.75 28.875V24.75C13.75 23.4537 13.75 22.8055 14.1527 22.4027C14.5555 22 15.2037 22 16.5 22C17.7963 22 18.4445 22 18.8473 22.4027C19.25 22.8055 19.25 23.4537 19.25 24.75V28.875" stroke="#12283F" stroke-width="2.0625" stroke-linecap="round" stroke-linejoin="round"/>
<path d="M13.75 11H19.25" stroke="#12283F" stroke-width="2.0625" stroke-linecap="round" stroke-linejoin="round"/>
<path d="M13.75 16.5H19.25" stroke="#12283F" stroke-width="2.0625" stroke-linecap="round" stroke-linejoin="round"/>
</svg>
