<svg width="29" height="29" viewBox="0 0 29 29" fill="none" xmlns="http://www.w3.org/2000/svg">
<path d="M2.37305 9.49223C2.37305 11.0843 11.9777 15.4248 14.2216 15.4248C16.4654 15.4248 26.0702 11.0843 26.0702 9.49223C26.0702 7.9002 16.4654 3.55969 14.2216 3.55969C11.9777 3.55969 2.37305 7.9002 2.37305 9.49223Z" stroke="#122056" stroke-width="1.77976" stroke-linecap="round" stroke-linejoin="round"/>
<path d="M7.1123 13.0518L7.40313 19.7317C7.40894 19.8654 7.42341 19.9994 7.46217 20.1275C7.58197 20.5236 7.80278 20.8834 8.13965 21.1252C10.7754 23.0166 17.6674 23.0166 20.3031 21.1252C20.6402 20.8834 20.8609 20.5236 20.9808 20.1275C21.0194 19.9994 21.0339 19.8654 21.0398 19.7317L21.3305 13.0518" stroke="#122056" stroke-width="1.77976" stroke-linecap="round" stroke-linejoin="round"/>
<path d="M24.0513 11.238V19.5436M24.0513 19.5436C23.1116 21.2596 22.6961 22.1791 22.2741 23.6964C22.1825 24.2362 22.2552 24.5083 22.6273 24.7499C22.7784 24.848 22.9601 24.8829 23.1402 24.8829H24.9442C25.136 24.8829 25.3296 24.8429 25.4875 24.734C25.8333 24.4955 25.9223 24.2339 25.8286 23.6964C25.4586 22.2875 24.9874 21.3243 24.0513 19.5436Z" stroke="#122056" stroke-width="1.77976" stroke-linecap="round" stroke-linejoin="round"/>
</svg>
