<svg width="14" height="20" viewBox="0 0 14 20" fill="none" xmlns="http://www.w3.org/2000/svg">
<path fill-rule="evenodd" clip-rule="evenodd" d="M1.72231 8.09645C0.850825 8.09645 0.668945 8.26749 0.668945 9.08678V10.5723C0.668945 11.3917 0.850825 11.5626 1.72231 11.5626H3.82902V17.5047C3.82902 18.324 4.0109 18.495 4.88238 18.495H6.9891C7.86061 18.495 8.04244 18.324 8.04244 17.5047V11.5626H10.408C11.069 11.5626 11.2393 11.4419 11.4208 10.8444L11.8723 9.35889C12.1833 8.33541 11.9916 8.09645 10.8594 8.09645H8.04244V5.62064C8.04244 5.07369 8.51403 4.63029 9.09578 4.63029H12.0939C12.9653 4.63029 13.1472 4.4593 13.1472 3.63996V1.65928C13.1472 0.839942 12.9653 0.668945 12.0939 0.668945H9.09578C6.18701 0.668945 3.82902 2.8859 3.82902 5.62064V8.09645H1.72231Z" stroke="#1877F2" stroke-width="1.33696" stroke-linejoin="round"/>
</svg>
