<svg width="40" height="40" viewBox="0 0 40 40" fill="none" xmlns="http://www.w3.org/2000/svg">
<path fill-rule="evenodd" clip-rule="evenodd" d="M14.8141 18.5144C13.9426 18.5144 13.7607 18.6855 13.7607 19.5047V20.9903C13.7607 21.8097 13.9426 21.9806 14.8141 21.9806H16.9208V27.9227C16.9208 28.742 17.1027 28.913 17.9742 28.913H20.0809C20.9524 28.913 21.1342 28.742 21.1342 27.9227V21.9806H23.4998C24.1607 21.9806 24.3311 21.8598 24.5126 21.2624L24.9641 19.7769C25.2751 18.7534 25.0834 18.5144 23.9512 18.5144H21.1342V16.0386C21.1342 15.4917 21.6058 15.0483 22.1876 15.0483H25.1857C26.0571 15.0483 26.239 14.8773 26.239 14.0579V12.0773C26.239 11.2579 26.0571 11.0869 25.1857 11.0869H22.1876C19.2788 11.0869 16.9208 13.3039 16.9208 16.0386V18.5144H14.8141Z" stroke="white" stroke-width="1.33696" stroke-linejoin="round"/>
</svg>
