<svg width="40" height="40" viewBox="0 0 40 40" fill="none" xmlns="http://www.w3.org/2000/svg">
<path d="M36.667 15V25" stroke="white" stroke-width="2.5" stroke-linecap="round" stroke-linejoin="round"/>
<path d="M30 20V25.1115C30 26.8888 30 27.7775 29.5617 28.5118L29.5527 28.5265C29.1102 29.2585 28.3072 29.7063 26.701 30.6018C23.4408 32.4197 21.8107 33.3287 20.0182 33.3333H19.9818C18.1893 33.3287 16.5592 32.4197 13.299 30.6018C11.6929 29.7063 10.8899 29.2585 10.4473 28.5265L10.4384 28.5118C10 27.7775 10 26.8888 10 25.1115V20" stroke="white" stroke-width="2.5" stroke-linecap="round" stroke-linejoin="round"/>
<path d="M14.2021 8.70452L7.34376 12.0127C4.66992 13.3024 3.33301 13.9473 3.33301 14.9857C3.33301 16.0242 4.66992 16.6692 7.34376 17.9588L14.3297 21.3285C17.101 22.6653 18.4867 23.3337 19.969 23.3337C21.4515 23.3337 22.8372 22.6653 25.6085 21.3285L32.7307 17.893C35.3565 16.6265 36.6693 15.9932 36.6663 14.9514C36.6633 13.9095 35.3573 13.289 32.7452 12.0479C30.3628 10.916 28.1138 9.87559 25.7213 8.73672C22.8175 7.35437 21.3655 6.66319 19.8918 6.66701C18.4183 6.67081 17.0128 7.34872 14.2021 8.70452Z" stroke="white" stroke-width="2.5" stroke-linecap="round" stroke-linejoin="round"/>
</svg>
