<svg width="33" height="33" viewBox="0 0 33 33" fill="none" xmlns="http://www.w3.org/2000/svg">
<path d="M30.25 12.375V20.625" stroke="#12283F" stroke-width="2.0625" stroke-linecap="round" stroke-linejoin="round"/>
<path d="M24.75 16.5V20.717C24.75 22.1833 24.75 22.9164 24.3884 23.5223L24.3809 23.5344C24.0159 24.1383 23.3534 24.5077 22.0283 25.2465C19.3387 26.7462 17.9938 27.4962 16.515 27.5H16.485C15.0062 27.4962 13.6613 26.7462 10.9717 25.2465C9.64664 24.5077 8.98413 24.1383 8.61905 23.5344L8.61169 23.5223C8.25 22.9164 8.25 22.1833 8.25 20.717V16.5" stroke="#12283F" stroke-width="2.0625" stroke-linecap="round" stroke-linejoin="round"/>
<path d="M11.717 7.18096L6.05887 9.91017C3.85296 10.9742 2.75 11.5062 2.75 12.363C2.75 13.2197 3.85296 13.7518 6.05887 14.8158L11.8222 17.5957C14.1086 18.6986 15.2518 19.25 16.4747 19.25C17.6978 19.25 18.8409 18.6986 21.1273 17.5957L27.0031 14.7614C29.1694 13.7166 30.2525 13.1942 30.25 12.3346C30.2475 11.4751 29.1701 10.9632 27.015 9.93928C25.0496 9.00542 23.1942 8.14709 21.2204 7.20753C18.8247 6.06709 17.6268 5.49686 16.411 5.50001C15.1954 5.50315 14.0359 6.06243 11.717 7.18096Z" stroke="#12283F" stroke-width="2.0625" stroke-linecap="round" stroke-linejoin="round"/>
</svg>
