<svg width="25" height="25" viewBox="0 0 25 25" fill="none" xmlns="http://www.w3.org/2000/svg">
<path d="M21.9941 7.36833L21.4848 6.48453C21.0997 5.81614 20.9071 5.48195 20.5794 5.34867C20.2518 5.21541 19.8812 5.32057 19.1401 5.53088L17.8811 5.88549C17.408 5.99461 16.9115 5.93271 16.4795 5.71072L16.1319 5.51018C15.7614 5.27289 15.4764 4.92303 15.3187 4.51178L14.9742 3.48274C14.7476 2.80177 14.6343 2.46128 14.3646 2.26653C14.095 2.07178 13.7368 2.07178 13.0204 2.07178H11.8702C11.1538 2.07178 10.7956 2.07178 10.5259 2.26653C10.2563 2.46128 10.143 2.80177 9.91644 3.48274L9.57188 4.51178C9.41415 4.92303 9.12918 5.27289 8.7587 5.51018L8.41113 5.71072C7.97908 5.93271 7.48266 5.99461 7.00949 5.88549L5.75052 5.53088C5.00938 5.32057 4.63882 5.21541 4.31115 5.34867C3.98349 5.48195 3.79093 5.81614 3.40578 6.48453L2.89653 7.36833C2.53551 7.99486 2.35499 8.30813 2.39003 8.64161C2.42506 8.97509 2.66672 9.24383 3.15002 9.7813L4.21379 10.9706C4.47379 11.2997 4.65838 11.8734 4.65838 12.3891C4.65838 12.9051 4.47385 13.4785 4.21382 13.8078L3.15002 14.9971C2.66672 15.5346 2.42507 15.8033 2.39003 16.1368C2.35499 16.4703 2.53551 16.7835 2.89653 17.41L3.40577 18.2938C3.79091 18.9622 3.98349 19.2965 4.31115 19.4297C4.63882 19.563 5.00939 19.4578 5.75054 19.2474L7.00945 18.8928C7.4827 18.7837 7.97922 18.8457 8.41131 19.0677L8.75884 19.2683C9.12924 19.5056 9.41414 19.8554 9.57185 20.2666L9.91644 21.2958C10.143 21.9767 10.2563 22.3172 10.5259 22.512C10.7956 22.7067 11.1538 22.7067 11.8702 22.7067H13.0204C13.7368 22.7067 14.095 22.7067 14.3646 22.512C14.6343 22.3172 14.7476 21.9767 14.9742 21.2958L15.3188 20.2666C15.4764 19.8554 15.7613 19.5056 16.1318 19.2683L16.4793 19.0677C16.9114 18.8457 17.4079 18.7837 17.8811 18.8928L19.1401 19.2474C19.8812 19.4578 20.2518 19.563 20.5794 19.4297C20.9071 19.2965 21.0997 18.9622 21.4848 18.2938L21.9941 17.41C22.3551 16.7835 22.5355 16.4703 22.5006 16.1368C22.4655 15.8033 22.2238 15.5346 21.7406 14.9971L20.6767 13.8078C20.4167 13.4785 20.2322 12.9051 20.2322 12.3891C20.2322 11.8734 20.4168 11.2997 20.6767 10.9706L21.7406 9.7813C22.2238 9.24383 22.4655 8.97509 22.5006 8.64161C22.5355 8.30813 22.3551 7.99486 21.9941 7.36833Z" stroke="#122056" stroke-width="1.54762" stroke-linecap="round"/>
<path d="M16.0122 12.381C16.0122 14.3754 14.3955 15.9921 12.4011 15.9921C10.4068 15.9921 8.79004 14.3754 8.79004 12.381C8.79004 10.3866 10.4068 8.7699 12.4011 8.7699C14.3955 8.7699 16.0122 10.3866 16.0122 12.381Z" stroke="#122056" stroke-width="1.54762"/>
</svg>
