<svg width="33" height="33" viewBox="0 0 33 33" fill="none" xmlns="http://www.w3.org/2000/svg">
<path d="M8.25 12.375V28.875H24.75V12.375C24.75 8.48591 24.75 6.54137 23.5418 5.33318C22.3336 4.125 20.389 4.125 16.5 4.125C12.6109 4.125 10.6664 4.125 9.45819 5.33318C8.25 6.54137 8.25 8.48591 8.25 12.375Z" stroke="#12283F" stroke-width="2.0625" stroke-linecap="round" stroke-linejoin="round"/>
<path d="M2.75 17.875V23.375C2.75 25.9677 2.75 27.264 3.55546 28.0695C4.36091 28.875 5.65727 28.875 8.25 28.875V12.375C5.65727 12.375 4.36091 12.375 3.55546 13.1805C2.75 13.9859 2.75 15.2823 2.75 17.875Z" stroke="#12283F" stroke-width="2.0625" stroke-linecap="round" stroke-linejoin="round"/>
<path d="M24.75 12.375V28.875C27.3427 28.875 28.639 28.875 29.4445 28.0695C30.25 27.264 30.25 25.9677 30.25 23.375V17.875C30.25 15.2823 30.25 13.9859 29.4445 13.1805C28.639 12.375 27.3427 12.375 24.75 12.375Z" stroke="#12283F" stroke-width="2.0625" stroke-linecap="round" stroke-linejoin="round"/>
<path d="M13.75 24.75V28.875H19.25V24.75C19.25 23.2312 18.0188 22 16.5 22C14.9812 22 13.75 23.2312 13.75 24.75Z" stroke="#12283F" stroke-width="2.0625" stroke-linecap="round" stroke-linejoin="round"/>
<path d="M16.5009 9.625V15.125M19.2578 12.3681H13.7578" stroke="#12283F" stroke-width="2.0625" stroke-linecap="round" stroke-linejoin="round"/>
</svg>
