<svg width="40" height="40" viewBox="0 0 40 40" fill="none" xmlns="http://www.w3.org/2000/svg">
<path d="M10 15V35H30V15C30 10.2859 30 7.92893 28.5355 6.46447C27.071 5 24.714 5 20 5C15.2859 5 12.9289 5 11.4645 6.46447C10 7.92893 10 10.2859 10 15Z" stroke="white" stroke-width="2.5" stroke-linecap="round" stroke-linejoin="round"/>
<path d="M3.33301 21.6667V28.3333C3.33301 31.476 3.33301 33.0473 4.30932 34.0237C5.28562 35 6.85697 35 9.99967 35V15C6.85697 15 5.28562 15 4.30932 15.9763C3.33301 16.9527 3.33301 18.524 3.33301 21.6667Z" stroke="white" stroke-width="2.5" stroke-linecap="round" stroke-linejoin="round"/>
<path d="M30 15V35C33.1427 35 34.714 35 35.6903 34.0237C36.6667 33.0473 36.6667 31.476 36.6667 28.3333V21.6667C36.6667 18.524 36.6667 16.9527 35.6903 15.9763C34.714 15 33.1427 15 30 15Z" stroke="white" stroke-width="2.5" stroke-linecap="round" stroke-linejoin="round"/>
<path d="M16.667 30.0003V35.0003H23.3337V30.0003C23.3337 28.1593 21.8413 26.667 20.0003 26.667C18.1593 26.667 16.667 28.1593 16.667 30.0003Z" stroke="white" stroke-width="2.5" stroke-linecap="round" stroke-linejoin="round"/>
<path d="M20.0018 11.667V18.3337M23.3434 14.992H16.6768" stroke="white" stroke-width="2.5" stroke-linecap="round" stroke-linejoin="round"/>
</svg>
