<svg width="29" height="29" viewBox="0 0 29 29" fill="none" xmlns="http://www.w3.org/2000/svg">
<path d="M14.2381 2.37317H7.11909C4.17418 2.37317 3.55957 2.98778 3.55957 5.93269V26.1033H17.7977V5.93269C17.7977 2.98778 17.1831 2.37317 14.2381 2.37317Z" stroke="#122056" stroke-width="1.77976" stroke-linejoin="round"/>
<path d="M21.3574 9.49231H17.7979V26.1034H24.9169V13.0518C24.9169 10.1069 24.3023 9.49231 21.3574 9.49231Z" stroke="#122056" stroke-width="1.77976" stroke-linejoin="round"/>
<path d="M9.49219 7.11926H11.8652M9.49219 10.6788H11.8652M9.49219 14.2383H11.8652" stroke="#122056" stroke-width="1.77976" stroke-linecap="round" stroke-linejoin="round"/>
<path d="M13.6454 26.1034V21.3573C13.6454 20.2387 13.6454 19.6794 13.2979 19.3318C12.9504 18.9843 12.3911 18.9843 11.2724 18.9843H10.0859C8.96725 18.9843 8.40794 18.9843 8.06041 19.3318C7.71289 19.6794 7.71289 20.2387 7.71289 21.3573V26.1034" stroke="#122056" stroke-width="1.77976" stroke-linejoin="round"/>
</svg>
