<svg width="22" height="22" viewBox="0 0 22 22" fill="none" xmlns="http://www.w3.org/2000/svg">
<path d="M2.67383 10.6956C2.67383 6.91408 2.67383 5.02334 3.84858 3.84858C5.02334 2.67383 6.91408 2.67383 10.6956 2.67383C14.477 2.67383 16.3678 2.67383 17.5426 3.84858C18.7173 5.02334 18.7173 6.91408 18.7173 10.6956C18.7173 14.477 18.7173 16.3678 17.5426 17.5426C16.3678 18.7173 14.477 18.7173 10.6956 18.7173C6.91408 18.7173 5.02334 18.7173 3.84858 17.5426C2.67383 16.3678 2.67383 14.477 2.67383 10.6956Z" stroke="white" stroke-width="1.33696" stroke-linecap="round" stroke-linejoin="round"/>
<path d="M14.2613 10.6956C14.2613 12.6646 12.6651 14.2608 10.6961 14.2608C8.72706 14.2608 7.13086 12.6646 7.13086 10.6956C7.13086 8.72657 8.72706 7.13037 10.6961 7.13037C12.6651 7.13037 14.2613 8.72657 14.2613 10.6956Z" stroke="white" stroke-width="1.33696" stroke-linecap="round" stroke-linejoin="round"/>
<path d="M15.4866 6.01628H15.3752M15.598 6.01628C15.598 6.13935 15.4982 6.23911 15.3752 6.23911C15.2521 6.23911 15.1523 6.13935 15.1523 6.01628C15.1523 5.89322 15.2521 5.79346 15.3752 5.79346C15.4982 5.79346 15.598 5.89322 15.598 6.01628Z" stroke="white" stroke-width="1.33696" stroke-linecap="round" stroke-linejoin="round"/>
</svg>
