<svg width="22" height="22" viewBox="0 0 22 22" fill="none" xmlns="http://www.w3.org/2000/svg">
<path d="M6.23926 8.91309V15.1522" stroke="#0A66C2" stroke-width="1.33696" stroke-linecap="round" stroke-linejoin="round"/>
<path d="M9.80469 11.587V15.1522M9.80469 11.587C9.80469 10.1102 11.0018 8.91309 12.4786 8.91309C13.9554 8.91309 15.1525 10.1102 15.1525 11.587V15.1522M9.80469 11.587V8.91309" stroke="#0A66C2" stroke-width="1.33696" stroke-linecap="round" stroke-linejoin="round"/>
<path d="M6.35084 6.01677H6.23943M6.46225 6.01677C6.46225 6.13983 6.36249 6.2396 6.23943 6.2396C6.11637 6.2396 6.0166 6.13983 6.0166 6.01677C6.0166 5.89371 6.11637 5.79395 6.23943 5.79395C6.36249 5.79395 6.46225 5.89371 6.46225 6.01677Z" stroke="#0A66C2" stroke-width="1.33696" stroke-linecap="round" stroke-linejoin="round"/>
<path d="M2.67383 10.6956C2.67383 6.91408 2.67383 5.02334 3.84858 3.84858C5.02334 2.67383 6.91408 2.67383 10.6956 2.67383C14.477 2.67383 16.3678 2.67383 17.5426 3.84858C18.7173 5.02334 18.7173 6.91408 18.7173 10.6956C18.7173 14.477 18.7173 16.3678 17.5426 17.5426C16.3678 18.7173 14.477 18.7173 10.6956 18.7173C6.91408 18.7173 5.02334 18.7173 3.84858 17.5426C2.67383 16.3678 2.67383 14.477 2.67383 10.6956Z" stroke="#0A66C2" stroke-width="1.33696" stroke-linecap="round" stroke-linejoin="round"/>
</svg>
