<svg width="29" height="29" viewBox="0 0 29 29" fill="none" xmlns="http://www.w3.org/2000/svg">
<path d="M2.37305 9.49211C2.37305 11.0841 11.9777 15.4246 14.2216 15.4246C16.4654 15.4246 26.0702 11.0841 26.0702 9.49211C26.0702 7.90008 16.4654 3.55957 14.2216 3.55957C11.9777 3.55957 2.37305 7.90008 2.37305 9.49211Z" stroke="white" stroke-width="1.77976" stroke-linecap="round" stroke-linejoin="round"/>
<path d="M7.11133 13.0518L7.40215 19.7317C7.40797 19.8654 7.42243 19.9994 7.46119 20.1275C7.581 20.5236 7.8018 20.8834 8.13868 21.1252C10.7745 23.0166 17.6665 23.0166 20.3022 21.1252C20.6392 20.8834 20.8599 20.5236 20.9798 20.1275C21.0185 19.9994 21.0329 19.8654 21.0389 19.7317L21.3296 13.0518" stroke="white" stroke-width="1.77976" stroke-linecap="round" stroke-linejoin="round"/>
<path d="M24.0513 11.2383V19.5438M24.0513 19.5438C23.1116 21.2599 22.6961 22.1793 22.2741 23.6966C22.1825 24.2365 22.2552 24.5085 22.6273 24.7501C22.7784 24.8482 22.9601 24.8831 23.1402 24.8831H24.9442C25.136 24.8831 25.3296 24.8431 25.4875 24.7342C25.8333 24.4957 25.9223 24.2341 25.8286 23.6966C25.4586 22.2878 24.9874 21.3245 24.0513 19.5438Z" stroke="white" stroke-width="1.77976" stroke-linecap="round" stroke-linejoin="round"/>
</svg>
