<svg width="25" height="25" viewBox="0 0 25 25" fill="none" xmlns="http://www.w3.org/2000/svg">
<path d="M21.995 7.36784L21.4858 6.48405C21.1006 5.81565 20.9081 5.48146 20.5804 5.34819C20.2527 5.21493 19.8821 5.32008 19.141 5.53039L17.8821 5.885C17.4089 5.99412 16.9125 5.93222 16.4805 5.71024L16.1329 5.5097C15.7624 5.2724 15.4774 4.92254 15.3197 4.5113L14.9752 3.48225C14.7486 2.80128 14.6353 2.46079 14.3656 2.26604C14.096 2.07129 13.7378 2.07129 13.0213 2.07129H11.8711C11.1548 2.07129 10.7966 2.07129 10.5269 2.26604C10.2572 2.46079 10.144 2.80128 9.91742 3.48225L9.57286 4.5113C9.41513 4.92254 9.13016 5.2724 8.75968 5.5097L8.4121 5.71024C7.98006 5.93222 7.48364 5.99412 7.01047 5.885L5.7515 5.53039C5.01035 5.32008 4.63979 5.21493 4.31213 5.34819C3.98447 5.48146 3.7919 5.81565 3.40675 6.48405L2.8975 7.36784C2.53649 7.99437 2.35597 8.30764 2.39101 8.64112C2.42604 8.9746 2.66769 9.24334 3.15099 9.78081L4.21477 10.9701C4.47477 11.2992 4.65935 11.8729 4.65935 12.3886C4.65935 12.9046 4.47483 13.4781 4.2148 13.8073L3.15099 14.9966C2.66769 15.5341 2.42605 15.8028 2.39101 16.1364C2.35597 16.4698 2.53649 16.783 2.8975 17.4095L3.40674 18.2933C3.79188 18.9617 3.98447 19.296 4.31213 19.4292C4.63979 19.5625 5.01036 19.4573 5.75152 19.247L7.01043 18.8923C7.48368 18.7832 7.98019 18.8452 8.41229 19.0672L8.75981 19.2678C9.13022 19.5051 9.41512 19.8549 9.57283 20.2661L9.91742 21.2953C10.144 21.9762 10.2572 22.3167 10.5269 22.5115C10.7966 22.7062 11.1548 22.7062 11.8711 22.7062H13.0213C13.7378 22.7062 14.096 22.7062 14.3656 22.5115C14.6353 22.3167 14.7486 21.9762 14.9752 21.2953L15.3198 20.2661C15.4774 19.8549 15.7623 19.5051 16.1328 19.2678L16.4803 19.0672C16.9124 18.8452 17.4088 18.7832 17.8821 18.8923L19.141 19.247C19.8821 19.4573 20.2527 19.5625 20.5804 19.4292C20.9081 19.296 21.1006 18.9617 21.4858 18.2933L21.995 17.4095C22.3561 16.783 22.5365 16.4698 22.5015 16.1364C22.4665 15.8028 22.2248 15.5341 21.7416 14.9966L20.6777 13.8073C20.4177 13.4781 20.2331 12.9046 20.2331 12.3886C20.2331 11.8729 20.4178 11.2992 20.6777 10.9701L21.7416 9.78081C22.2248 9.24334 22.4665 8.9746 22.5015 8.64112C22.5365 8.30764 22.3561 7.99437 21.995 7.36784Z" stroke="#122056" stroke-width="1.54762" stroke-linecap="round"/>
<path d="M16.0132 12.3806C16.0132 14.375 14.3965 15.9918 12.4021 15.9918C10.4077 15.9918 8.79102 14.375 8.79102 12.3806C8.79102 10.3863 10.4077 8.76953 12.4021 8.76953C14.3965 8.76953 16.0132 10.3863 16.0132 12.3806Z" stroke="#122056" stroke-width="1.54762"/>
</svg>
