<svg width="100" height="100" viewBox="0 0 100 100" fill="none" xmlns="http://www.w3.org/2000/svg">
<path d="M0 50C0 22.3858 22.3858 0 50 0C77.6142 0 100 22.3858 100 50C100 77.6142 77.6142 100 50 100C22.3858 100 0 77.6142 0 50Z" fill="url(#paint0_linear_1_729)"/>
<path d="M42.4375 43.3125H39.6875C38.9281 43.3125 38.3125 43.9281 38.3125 44.6875V49.5C38.3125 53.6767 41.6983 57.0625 45.875 57.0625C50.0517 57.0625 53.4375 53.6767 53.4375 49.5V44.6875C53.4375 43.9281 52.8219 43.3125 52.0625 43.3125H49.3125" stroke="white" stroke-width="2.0625" stroke-linecap="round" stroke-linejoin="round"/>
<path d="M58.9375 59.8125V61.5312C58.9375 65.1384 56.0134 68.0625 52.4062 68.0625C48.7991 68.0625 45.875 65.1384 45.875 61.5312V57.0625" stroke="white" stroke-width="2.0625" stroke-linecap="round" stroke-linejoin="round"/>
<path d="M49.3125 41.9375V44.6875" stroke="white" stroke-width="2.0625" stroke-linecap="round" stroke-linejoin="round"/>
<path d="M42.4375 41.9375V44.6875" stroke="white" stroke-width="2.0625" stroke-linecap="round" stroke-linejoin="round"/>
<path d="M61.6875 57.0625C61.6875 58.5813 60.4563 59.8125 58.9375 59.8125C57.4187 59.8125 56.1875 58.5813 56.1875 57.0625C56.1875 55.5437 57.4187 54.3125 58.9375 54.3125C60.4563 54.3125 61.6875 55.5437 61.6875 57.0625Z" stroke="white" stroke-width="2.0625"/>
<defs>
<linearGradient id="paint0_linear_1_729" x1="50" y1="0" x2="50" y2="100" gradientUnits="userSpaceOnUse">
<stop stop-color="#122056"/>
<stop offset="1" stop-color="#3B509A"/>
</linearGradient>
</defs>
</svg>
