<svg width="40" height="40" viewBox="0 0 40 40" fill="none" xmlns="http://www.w3.org/2000/svg">
<path d="M21.6663 25C17.8468 35 7.15246 25 3.33301 35" stroke="white" stroke-width="2.5" stroke-linecap="round" stroke-linejoin="round"/>
<path d="M25.8333 25H28.3355C32.2638 25 34.228 25 35.4485 23.7797C36.6688 22.5592 36.6688 20.595 36.6688 16.6667V13.3333C36.6688 9.40497 36.6688 7.44078 35.4485 6.22038C34.228 5 32.2638 5 28.3355 5H21.6688C17.7405 5 15.7763 5 14.5559 6.22038C13.5219 7.2544 13.364 8.8224 13.3398 11.6667" stroke="white" stroke-width="2.5" stroke-linecap="round" stroke-linejoin="round"/>
<path d="M12.4997 25.0003C14.8009 25.0003 16.6663 23.1348 16.6663 20.8337C16.6663 18.5325 14.8009 16.667 12.4997 16.667C10.1985 16.667 8.33301 18.5325 8.33301 20.8337C8.33301 23.1348 10.1985 25.0003 12.4997 25.0003Z" stroke="white" stroke-width="2.5" stroke-linecap="round" stroke-linejoin="round"/>
<path d="M20 11.668H30M30 18.3346H25" stroke="white" stroke-width="2.5" stroke-linecap="round" stroke-linejoin="round"/>
</svg>
