<svg width="33" height="33" viewBox="0 0 33 33" fill="none" xmlns="http://www.w3.org/2000/svg">
<path d="M17.875 20.6254C14.7239 28.8754 5.90105 20.6254 2.75 28.8754" stroke="#122056" stroke-width="2.0625" stroke-linecap="round" stroke-linejoin="round"/>
<path d="M21.313 20.6248H23.3773C26.6181 20.6248 28.2386 20.6248 29.2455 19.618C30.2523 18.6111 30.2523 16.9907 30.2523 13.7498V10.9998C30.2523 7.75891 30.2523 6.13846 29.2455 5.13163C28.2386 4.12482 26.6181 4.12482 23.3773 4.12482H17.8773C14.6364 4.12482 13.0159 4.12482 12.0091 5.13163C11.156 5.9847 11.0258 7.2783 11.0059 9.62482" stroke="#122056" stroke-width="2.0625" stroke-linecap="round" stroke-linejoin="round"/>
<path d="M10.3125 20.6251C12.211 20.6251 13.75 19.086 13.75 17.1876C13.75 15.2891 12.211 13.7501 10.3125 13.7501C8.41402 13.7501 6.875 15.2891 6.875 17.1876C6.875 19.086 8.41402 20.6251 10.3125 20.6251Z" stroke="#122056" stroke-width="2.0625" stroke-linecap="round" stroke-linejoin="round"/>
<path d="M16.5 9.62567H24.75M24.75 15.1257H20.625" stroke="#122056" stroke-width="2.0625" stroke-linecap="round" stroke-linejoin="round"/>
</svg>
