<svg width="29" height="29" viewBox="0 0 29 29" fill="none" xmlns="http://www.w3.org/2000/svg">
<path d="M17.7987 9.49211C17.7987 6.21566 15.1426 3.55957 11.8661 3.55957C8.58969 3.55957 5.93359 6.21566 5.93359 9.49211C5.93359 12.7685 8.58969 15.4246 11.8661 15.4246C15.1426 15.4246 17.7987 12.7685 17.7987 9.49211Z" stroke="white" stroke-width="1.77976" stroke-linecap="round" stroke-linejoin="round"/>
<path d="M3.56055 23.7304C3.56055 19.1433 7.27907 15.4248 11.8661 15.4248C13.3789 15.4248 14.7973 15.8293 16.0189 16.536" stroke="white" stroke-width="1.77976" stroke-linecap="round" stroke-linejoin="round"/>
<path d="M21.4816 17.2111L22.2124 18.6848C22.3121 18.8899 22.5778 19.0866 22.802 19.1244L24.1266 19.3462C24.9736 19.4886 25.173 20.1082 24.5626 20.7195L23.5329 21.7577C23.3584 21.9335 23.2629 22.2728 23.3169 22.5155L23.6118 23.8009C23.8443 24.8182 23.3086 25.2117 22.4159 24.6801L21.1743 23.939C20.9501 23.805 20.5806 23.805 20.3522 23.939L19.1106 24.6801C18.222 25.2117 17.6822 24.814 17.9147 23.8009L18.2096 22.5155C18.2636 22.2728 18.1681 21.9335 17.9936 21.7577L16.9639 20.7195C16.3576 20.1082 16.5527 19.4886 17.3999 19.3462L18.7244 19.1244C18.9445 19.0866 19.2103 18.8899 19.31 18.6848L20.0407 17.2111C20.4394 16.4114 21.0871 16.4114 21.4816 17.2111Z" stroke="white" stroke-width="1.77976" stroke-linecap="round" stroke-linejoin="round"/>
</svg>
